{
    "asset" : {
        "generator" : "Khronos glTF Blender I/O v0.9.36",
        "version" : "2.0"
    },
    "scene" : 0,
    "scenes" : [
        {
            "name" : "Scene",
            "nodes" : [
                0
            ]
        }
    ],
    "nodes" : [
        {
            "name" : "Root",
            "children": [
                1,
                2
            ]
        },
        {
            "mesh" : 0,
            "name" : "Cylinder"
        },
        {
            "mesh" : 1,
            "name" : "Cylinder.001"
        }
    ],
    "materials" : [
        {
            "doubleSided" : true,
            "name" : "Material.001",
            "pbrMetallicRoughness" : {
                "baseColorFactor" : [
                    0.002075597643852234,
                    0.015994967892766,
                    0.001457500853575766,
                    1
                ],
                "metallicFactor" : 0,
                "roughnessFactor" : 0.5
            }
        },
        {
            "doubleSided" : true,
            "name" : "Material.002",
            "pbrMetallicRoughness" : {
                "baseColorFactor" : [
                    0.007193625904619694,
                    0.0031797687988728285,
                    0.0021449204068630934,
                    1
                ],
                "metallicFactor" : 0,
                "roughnessFactor" : 0.5
            }
        }
    ],
    "meshes" : [
        {
            "name" : "Cylinder.003",
            "primitives" : [
                {
                    "attributes" : {
                        "POSITION" : 0,
                        "NORMAL" : 1,
                        "TEXCOORD_0" : 2
                    },
                    "indices" : 3,
                    "material" : 0
                }
            ]
        },
        {
            "name" : "Cylinder.004",
            "primitives" : [
                {
                    "attributes" : {
                        "POSITION" : 4,
                        "NORMAL" : 5,
                        "TEXCOORD_0" : 6
                    },
                    "indices" : 7,
                    "material" : 1
                }
            ]
        }
    ],
    "accessors" : [
        {
            "bufferView" : 0,
            "componentType" : 5126,
            "count" : 656,
            "max" : [
                1.8876625299453735,
                5.18568754196167,
                1.8876625299453735
            ],
            "min" : [
                -1.887662649154663,
                0,
                -1.8876625299453735
            ],
            "type" : "VEC3"
        },
        {
            "bufferView" : 1,
            "componentType" : 5126,
            "count" : 656,
            "type" : "VEC3"
        },
        {
            "bufferView" : 2,
            "componentType" : 5126,
            "count" : 656,
            "type" : "VEC2"
        },
        {
            "bufferView" : 3,
            "componentType" : 5123,
            "count" : 960,
            "type" : "SCALAR"
        },
        {
            "bufferView" : 4,
            "componentType" : 5126,
            "count" : 108,
            "max" : [
                0.866025447845459,
                4.567146301269531,
                1
            ],
            "min" : [
                -0.866025447845459,
                -1,
                -1
            ],
            "type" : "VEC3"
        },
        {
            "bufferView" : 5,
            "componentType" : 5126,
            "count" : 108,
            "type" : "VEC3"
        },
        {
            "bufferView" : 6,
            "componentType" : 5126,
            "count" : 108,
            "type" : "VEC2"
        },
        {
            "bufferView" : 7,
            "componentType" : 5123,
            "count" : 168,
            "type" : "SCALAR"
        }
    ],
    "bufferViews" : [
        {
            "buffer" : 0,
            "byteLength" : 7872,
            "byteOffset" : 0
        },
        {
            "buffer" : 0,
            "byteLength" : 7872,
            "byteOffset" : 7872
        },
        {
            "buffer" : 0,
            "byteLength" : 5248,
            "byteOffset" : 15744
        },
        {
            "buffer" : 0,
            "byteLength" : 1920,
            "byteOffset" : 20992
        },
        {
            "buffer" : 0,
            "byteLength" : 1296,
            "byteOffset" : 22912
        },
        {
            "buffer" : 0,
            "byteLength" : 1296,
            "byteOffset" : 24208
        },
        {
            "buffer" : 0,
            "byteLength" : 864,
            "byteOffset" : 25504
        },
        {
            "buffer" : 0,
            "byteLength" : 336,
            "byteOffset" : 26368
        }
    ],
    "buffers" : [
        {
            "byteLength" : 26704,
            "uri" : "treetest.bin"
        }
    ]
}
